<svg id="eueacX5boB91" xmlns="http://www.w3.org/2000/svg" xmlns:xlink="http://www.w3.org/1999/xlink" viewBox="0 0 1821 1080" shape-rendering="geometricPrecision" text-rendering="geometricPrecision" width="1821" height="1080"><defs><linearGradient id="eueacX5boB94-fill" x1="1172" y1="690.170000" x2="1172" y2="290" spreadMethod="pad" gradientUnits="userSpaceOnUse"><stop id="eueacX5boB94-fill-0" offset="0%" stop-color="rgb(0,0,196)"/><stop id="eueacX5boB94-fill-1" offset="33%" stop-color="rgb(0,39,252)"/><stop id="eueacX5boB94-fill-2" offset="35%" stop-color="rgb(0,41,255)"/><stop id="eueacX5boB94-fill-3" offset="47%" stop-color="rgb(0,79,250)"/><stop id="eueacX5boB94-fill-4" offset="64%" stop-color="rgb(0,128,244)"/><stop id="eueacX5boB94-fill-5" offset="80%" stop-color="rgb(0,165,240)"/><stop id="eueacX5boB94-fill-6" offset="92%" stop-color="rgb(0,187,237)"/><stop id="eueacX5boB94-fill-7" offset="100%" stop-color="rgb(0,195,236)"/></linearGradient><linearGradient id="eueacX5boB97-fill" x1="1317.410000" y1="591.470000" x2="1317.410000" y2="696.630000" spreadMethod="pad" gradientUnits="userSpaceOnUse"><stop id="eueacX5boB97-fill-0" offset="0%" stop-color="rgb(0,0,196)"/><stop id="eueacX5boB97-fill-1" offset="31%" stop-color="rgb(0,57,208)"/><stop id="eueacX5boB97-fill-2" offset="100%" stop-color="rgb(0,195,236)"/></linearGradient></defs><g id="eueacX5boB92" style="isolation:isolate"><g id="eueacX5boB93"><path id="eueacX5boB94" d="M1251.130000,591.470000C1202.178075,629.662727,1132.928485,627.426959,1086.542091,586.156173C1040.155697,544.885387,1029.879832,476.365967,1062.119085,423.303684C1094.358339,370.241401,1159.905612,347.790133,1217.907568,369.942975C1275.909524,392.095817,1309.801582,452.526214,1298.460000,513.570000L1299.910000,514.100000L1303.520000,515.290000C1305,515.720000,1306.460000,516.150000,1307.940000,516.550000C1327.520000,521.950000,1347.480000,525.820000,1367.470000,529.330000L1368.200000,529.450000C1372.097742,509.966289,1373.071761,490.010686,1371.090000,470.240000C1360.090000,360.290000,1262.090000,280.040000,1152.160000,291C1042.230000,301.960000,962,400,972.920000,509.930000C983.840000,619.860000,1081.920000,700.130000,1191.850000,689.170000C1245.813748,683.834457,1295.278428,656.755253,1328.850000,614.170000C1302.050000,608.800000,1276,601.840000,1251.130000,591.470000Z" fill="url(#eueacX5boB94-fill)" stroke="none" stroke-width="1"/><path id="eueacX5boB95" style="mix-blend-mode:overlay" d="M1251.130000,591.470000L1251.130000,673.880000C1251.130000,673.880000,1301.580000,652.880000,1328.860000,614.200000Z" fill="rgb(14,14,14)" stroke="none" stroke-width="1"/><path id="eueacX5boB96" style="mix-blend-mode:overlay" d="M1251.130000,591.470000L1251.130000,673.880000C1251.130000,673.880000,1301.580000,652.880000,1328.860000,614.200000Z" fill="rgb(14,14,14)" stroke="none" stroke-width="1"/><polygon id="eueacX5boB97" points="1251.130000,591.470000 1305.040000,696.630000 1383.700000,688.790000 1328.860000,614.200000 1251.130000,591.470000" fill="url(#eueacX5boB97-fill)" stroke="none" stroke-width="1"/><text id="eueacX5boB98" dx="0" dy="0" font-family="MicrosoftSansSerif, Microsoft Sans Serif" font-size="388.700000" transform="matrix(1 0 0 1 437.30000000000001 683.16999999999996)" fill="rgb(40,36,37)" stroke="rgb(40,36,37)" stroke-width="9" stroke-miterlimit="10"><![CDATA[tas]]></text></g></g></svg>